<?xml version="1.0" encoding="UTF-8"?>
<svg version="1.1" xmlns="http://www.w3.org/2000/svg" width="1024" height="1024">
<path d="M0 0 C337.92 0 675.84 0 1024 0 C1024 337.92 1024 675.84 1024 1024 C686.08 1024 348.16 1024 0 1024 C0 686.08 0 348.16 0 0 Z " fill="#FEFEFE" transform="translate(0,0)"/>
<path d="M0 0 C38.97056148 0 67.67202584 4.79233356 102.72680664 19.11523438 C106.79329552 20.6979812 110.95558092 21.96911263 115.125 23.25 C115.98609375 23.518125 116.8471875 23.78625 117.734375 24.0625 C119.82180351 24.7119222 121.91074098 25.35649106 124 26 C122.45972422 29.15655625 120.72122428 32.13396672 118.87792969 35.12475586 C100.13097042 65.64046869 95.62901188 101.38817536 103.78515625 136.2109375 C108.608809 155.67093087 116.23183575 174.11970617 130 189 C130.98379617 190.08919092 131.9668271 191.17907336 132.94921875 192.26953125 C135.4866565 195.06940729 138.06537924 197.82687689 140.66308594 200.57080078 C141.77985108 201.76465453 142.86651474 202.98657401 143.9453125 204.21484375 C164.83770278 227.12152278 198.92821305 235.15470217 228 240 C228 279.93 228 319.86 228 361 C220.20779221 354.32096475 220.20779221 354.32096475 217.1875 351.1875 C214.84612129 348.7530483 214.84612129 348.7530483 212 347 C212 346.34 212 345.68 212 345 C211.45730469 344.77054688 210.91460937 344.54109375 210.35546875 344.3046875 C207.32433656 342.62575192 204.89138291 340.40914204 202.3125 338.125 C195.25313668 332.01996179 187.74999583 326.67546167 180.05078125 321.41259766 C178.19425387 320.13380392 176.36052484 318.82903007 174.53125 317.51171875 C155.46481725 304.0046071 133.67428631 294.4691682 112 286 C110.96190186 285.5875 109.92380371 285.175 108.85424805 284.75 C73.89131733 271.01838266 37.37788454 263.96725708 0 262 C0 175.54 0 89.08 0 0 Z " fill="#003573" transform="translate(276,263)"/>
<path d="M0 0 C0.74664917 -0.00358521 1.49329834 -0.00717041 2.26257324 -0.01086426 C17.41960138 -0.05002109 17.41960138 -0.05002109 24.3125 2.3125 C25.3125 3.3125 25.3125 3.3125 25.4366985 5.09741408 C25.43612892 6.27701528 25.43612892 6.27701528 25.43554783 7.48044682 C25.43753888 8.38463732 25.43952993 9.28882782 25.44158131 10.22041804 C25.43866847 11.2252608 25.43575563 12.23010357 25.43275452 13.26539612 C25.43403615 14.85313785 25.43403615 14.85313785 25.43534368 16.47295517 C25.43700164 20.04912556 25.43147198 23.62524989 25.42602539 27.20141602 C25.42574356 29.7532552 25.42590117 32.30509446 25.4264679 34.85693359 C25.42669622 40.36595314 25.4238447 45.87495763 25.41823006 51.38397408 C25.4101174 59.34917303 25.40750008 67.31436626 25.40624207 75.2795689 C25.40405118 88.20127509 25.39739009 101.12297497 25.38793945 114.04467773 C25.37876629 126.60001595 25.37168499 139.15535247 25.36743164 151.71069336 C25.36716892 152.48406249 25.36690619 153.25743162 25.36663551 154.05423618 C25.36533051 157.93383999 25.36406679 161.81344381 25.36282361 165.69304764 C25.35244984 197.89953634 25.33483053 230.1060173 25.3125 262.3125 C24.59717259 262.33784254 23.88184519 262.36318508 23.14484119 262.38929558 C19.8676701 262.50730762 16.59070472 262.63032475 13.3137207 262.75341797 C12.18853279 262.7931926 11.06334488 262.83296722 9.90406036 262.87394714 C1.62711 263.18990963 -6.34425835 263.94723055 -14.5 265.4375 C-15.74370361 265.65631836 -16.98740723 265.87513672 -18.26879883 266.10058594 C-65.79455844 274.76074205 -112.77817677 291.73379549 -152.6875 319.3125 C-153.32010742 319.74836426 -153.95271484 320.18422852 -154.60449219 320.63330078 C-162.20171059 325.89790194 -169.57322257 331.40754078 -176.6875 337.3125 C-177.42734131 337.92496582 -177.42734131 337.92496582 -178.18212891 338.54980469 C-184.95759997 344.17275791 -191.57217659 349.93465653 -197.99365234 355.96020508 C-201.58605485 359.3125 -201.58605485 359.3125 -202.6875 359.3125 C-202.6875 320.0425 -202.6875 280.7725 -202.6875 240.3125 C-192.2925 238.8275 -192.2925 238.8275 -181.6875 237.3125 C-157.90387437 232.12659667 -138.27745333 223.04291218 -119.6875 207.3125 C-118.33011719 206.18521484 -118.33011719 206.18521484 -116.9453125 205.03515625 C-92.26706328 183.77803504 -75.80110293 151.71792584 -73.05273438 119.23071289 C-72.89916571 116.92499596 -72.78447354 114.62125386 -72.6875 112.3125 C-72.65043945 111.54518555 -72.61337891 110.77787109 -72.57519531 109.98730469 C-71.25948077 78.78793512 -80.00516736 51.80261588 -97.6875 26.3125 C-96.6875 24.3125 -96.6875 24.3125 -94.96484375 23.70703125 C-94.19269531 23.51496094 -93.42054688 23.32289063 -92.625 23.125 C-87.99113605 21.82070166 -83.68521409 20.05152848 -79.3125 18.0625 C-69.98186856 13.86321113 -60.40320452 10.504002 -50.6875 7.3125 C-48.84865234 6.70728516 -48.84865234 6.70728516 -46.97265625 6.08984375 C-31.34678428 1.29450615 -16.22667332 0.0318626 0 0 Z " fill="#013573" transform="translate(721.6875,262.6875)"/>
<path d="M0 0 C0.97582031 0.00773438 1.95164062 0.01546875 2.95703125 0.0234375 C30.5973007 1.0515448 55.48453331 15.41220515 75 34 C75.6496875 34.56332031 76.299375 35.12664062 76.96875 35.70703125 C95.7520132 52.75823124 107.23357417 81.02470144 109 106 C110.64513802 140.72037255 101.75751629 169.61837389 79.6875 196.625 C79.25453613 197.15891357 78.82157227 197.69282715 78.37548828 198.24291992 C77.29646151 199.53524268 76.15300216 200.77322256 75 202 C74.34 202 73.68 202 73 202 C72.79632812 202.55300781 72.59265625 203.10601562 72.3828125 203.67578125 C70.4669847 206.89588731 67.79667135 208.92693968 64.875 211.1875 C64.25608887 211.66727295 63.63717773 212.1470459 62.99951172 212.64135742 C43.93590231 227.04989942 21.14936062 236.23491049 -3 235 C-1.60775637 232.01105446 0.02272113 229.48771899 2.01953125 226.8671875 C2.92481567 225.67186401 2.92481567 225.67186401 3.84838867 224.45239258 C4.49654541 223.60185303 5.14470215 222.75131348 5.8125 221.875 C15.62821247 208.88996198 25.13523566 195.69855844 34.48999023 182.37841797 C36.99077311 178.82314716 39.51129271 175.28529393 42.078125 171.77734375 C49.0727514 162.21379366 55.76131833 152.48868049 62.26855469 142.58569336 C65.4395211 137.77363411 68.67018772 133.04282459 72.09375 128.40625 C75.76026115 123.41157072 79.03590217 118.26870754 82.1875 112.9375 C82.68185547 112.11701172 83.17621094 111.29652344 83.68554688 110.45117188 C87.07535306 104.76576571 90.11733561 98.95761192 93 93 C91.20762269 91.8360402 91.20762269 91.8360402 89 91 C86.0924422 92.07890388 83.54488548 93.23296527 80.81005859 94.65673828 C79.98673035 95.06942459 79.1634021 95.4821109 78.31512451 95.90730286 C75.58515245 97.28019504 72.86713436 98.6752439 70.1484375 100.0703125 C68.25073169 101.0291691 66.35225168 101.98649486 64.45303345 102.94235229 C59.44226311 105.46871316 54.44103275 108.0133976 49.44189453 110.56268311 C41.46423382 114.62660966 33.47173014 118.66129334 25.48067093 122.69878769 C22.69869026 124.10736837 19.920263 125.52275307 17.14242554 126.93948364 C15.41710125 127.81538189 13.69173127 128.69119012 11.96630859 129.56689453 C10.82341873 130.15315865 10.82341873 130.15315865 9.65744019 130.75126648 C-6.76901308 139.06342177 -6.76901308 139.06342177 -13 138 C-16.06541317 136.86880658 -18.95639063 135.46419224 -21.875 134 C-22.71071533 133.59209229 -23.54643066 133.18418457 -24.4074707 132.76391602 C-26.94456448 131.52148875 -29.47297493 130.2627588 -32 129 C-33.41261055 128.30047854 -34.82536124 127.60123994 -36.23828125 126.90234375 C-38.79562511 125.63561536 -41.34527233 124.35415333 -43.89306641 123.06835938 C-47.02112625 121.49054411 -50.15616699 119.92731143 -53.29412842 118.3692627 C-60.36171323 114.85500422 -67.38540676 111.26190547 -74.390625 107.625 C-76.18873993 106.69389038 -77.98691743 105.76290158 -79.78515625 104.83203125 C-82.54560849 103.40298047 -85.30464768 101.97146546 -88.06005859 100.53271484 C-90.7706084 99.11849436 -93.48628648 97.71459255 -96.203125 96.3125 C-97.02911194 95.87824707 -97.85509888 95.44399414 -98.70611572 94.99658203 C-99.47502136 94.60196777 -100.243927 94.20735352 -101.03613281 93.80078125 C-101.70735168 93.45184814 -102.37857056 93.10291504 -103.07012939 92.7434082 C-105.277422 91.76035763 -105.277422 91.76035763 -109 92 C-107.39133529 103.89223354 -96.86608315 115.99538536 -90.25 125.8125 C-89.35988519 127.14012367 -88.46991275 128.46784281 -87.58007812 129.7956543 C-81.63473197 138.65028206 -75.58671042 147.42455604 -69.36669922 156.08886719 C-67.41832338 158.81339131 -65.4944626 161.55494564 -63.56860352 164.29541016 C-57.334123 173.16254131 -51.00089892 181.95636256 -44.64111328 190.73388672 C-42.46480201 193.73902228 -40.29251712 196.74705489 -38.12060547 199.75537109 C-37.04569426 201.24418303 -35.97050183 202.73279196 -34.89501953 204.22119141 C-32.07052085 208.13025646 -29.24961357 212.04185284 -26.43359375 215.95703125 C-25.84835937 216.76978516 -25.263125 217.58253906 -24.66015625 218.41992188 C-23.54320723 219.97123996 -22.42725953 221.52327969 -21.3125 223.07617188 C-19.14095014 226.09037149 -16.95751195 229.05284757 -14.62890625 231.94921875 C-13 234 -13 234 -13 235 C-44.18641416 234.91177818 -71.21870199 220.55480271 -93 199 C-98 193.71553611 -98 193.71553611 -98 191 C-98.66 191 -99.32 191 -100 191 C-101.65118537 188.71964549 -103.15335627 186.45644384 -104.625 184.0625 C-105.2905188 182.98029175 -105.2905188 182.98029175 -105.96948242 181.8762207 C-122.84130345 153.90364232 -129.5530343 121.1830262 -122 89 C-117.63557705 72.52662488 -110.25201125 56.90101289 -99 44 C-98.278125 43.16984375 -97.55625 42.3396875 -96.8125 41.484375 C-94.57367214 38.95813005 -92.29634933 36.47394469 -90 34 C-89.44828125 33.38253906 -88.8965625 32.76507813 -88.328125 32.12890625 C-66.30137296 8.52102597 -31.28518785 -1.2020598 0 0 Z " fill="#FEB000" transform="translate(520,249)"/>
<path d="M0 0 C1.05574219 0.00193359 2.11148438 0.00386719 3.19921875 0.00585938 C4.28074219 0.01810547 5.36226562 0.03035156 6.4765625 0.04296875 C8.13365234 0.04393555 8.13365234 0.04393555 9.82421875 0.04492188 C17.96105346 0.08995971 17.96105346 0.08995971 19.1015625 1.23046875 C19.19834616 2.72132508 19.22527998 4.21676859 19.22461033 5.71076298 C19.22660138 6.68462139 19.22859243 7.65847981 19.23064381 8.66184908 C19.22773097 9.74451081 19.22481813 10.82717255 19.22181702 11.94264221 C19.22309865 13.65289051 19.22309865 13.65289051 19.22440618 15.39768928 C19.22577431 18.57648402 19.22262705 21.75523853 19.21762812 24.93402851 C19.21332676 28.35667414 19.21476982 31.77931776 19.2155304 35.20196533 C19.21605583 41.13660189 19.21290699 47.07122748 19.20729256 53.00586128 C19.1991802 61.58644199 19.19656261 70.16701738 19.19530457 78.7476015 C19.19311363 92.66759346 19.18645242 106.58757958 19.17700195 120.50756836 C19.16782891 134.03295869 19.16074755 147.55834743 19.15649414 161.08374023 C19.15610006 162.3334038 19.15610006 162.3334038 19.15569801 163.60831309 C19.15439301 167.78759833 19.15312929 171.96688357 19.15188611 176.14616883 C19.1415122 210.84093964 19.12389275 245.53570366 19.1015625 280.23046875 C18.34719406 280.22380692 17.59282562 280.21714508 16.81559753 280.21028137 C9.56896857 280.14918648 2.32247111 280.10400956 -4.92435169 280.07503223 C-8.64654173 280.0596322 -12.36851241 280.03889021 -16.09057617 280.00415039 C-35.25477406 279.83009993 -53.87147833 280.59517956 -72.8984375 283.23046875 C-74.61768712 283.45896863 -76.33702086 283.686837 -78.05645752 283.91392517 C-82.09502865 284.45101439 -86.12089155 285.05349422 -90.1484375 285.66796875 C-91.48825053 285.86154086 -92.82809454 286.0548987 -94.16796875 286.24804688 C-103.3100142 287.60613835 -112.01536001 289.7342426 -120.8984375 292.23046875 C-122.53590472 292.65053052 -124.1749765 293.06444917 -125.81640625 293.46875 C-146.66149415 298.67466365 -166.26390948 306.5712188 -185.8984375 315.23046875 C-186.80609863 315.63056152 -187.71375977 316.0306543 -188.64892578 316.44287109 C-200.43359539 321.69271154 -212.5325146 327.46132175 -222.62524414 335.62768555 C-227.05815518 339.1636311 -230.00636547 339.80091442 -235.8359375 339.54296875 C-236.51978516 339.52041016 -237.20363281 339.49785156 -237.90820312 339.47460938 C-239.57258701 339.41641413 -241.23582252 339.32675919 -242.8984375 339.23046875 C-239.42772083 335.67711596 -235.8307186 332.36065854 -232.0234375 329.16796875 C-231.465354 328.6989917 -230.90727051 328.23001465 -230.33227539 327.74682617 C-219.87332744 318.99705511 -209.41756139 310.56453816 -197.8984375 303.23046875 C-196.55787374 302.34353523 -195.21808345 301.45543196 -193.87890625 300.56640625 C-166.88182075 282.84324238 -137.06585635 268.82580009 -105.8984375 260.23046875 C-105.01220703 259.98490234 -104.12597656 259.73933594 -103.21289062 259.48632812 C-91.29513585 256.23752679 -79.3034214 253.61482768 -67.1484375 251.41796875 C-66.00705322 251.21099365 -64.86566895 251.00401855 -63.68969727 250.79077148 C-46.6943911 247.83868693 -30.31464671 248.23046875 -12.8984375 248.23046875 C-12.8984375 167.05046875 -12.8984375 85.87046875 -12.8984375 2.23046875 C-7.77791376 0.76746197 -4.98208439 -0.02126957 0 0 Z " fill="#013472" transform="translate(776.8984375,293.76953125)"/>
<path d="M0 0 C17.03076923 0 17.03076923 0 22.8125 0.4375 C24.52373047 0.55931641 24.52373047 0.55931641 26.26953125 0.68359375 C29 1 29 1 31 2 C31 83.18 31 164.36 31 248 C39.91 248 48.82 248 58 248 C62.71753696 248.43214079 67.19182648 248.85937137 71.82470703 249.640625 C74.38783017 250.0640725 76.95678149 250.43689273 79.52734375 250.8125 C131.2090059 258.60526667 181.03618472 279.94129471 223.17675781 310.67626953 C224.82280254 311.87134914 226.48473432 313.04447191 228.1484375 314.21484375 C233.64083347 318.09952157 238.69387841 322.2560992 243.6328125 326.82421875 C246.51408768 329.47251953 249.49737737 331.98775499 252.50390625 334.4921875 C254 336 254 336 255 339 C247.23041052 339.64846651 241.75666638 339.76510794 235.48828125 334.90625 C225.99040442 327.63001155 214.82957847 321.96046001 204 317 C203.15228027 316.61118652 202.30456055 316.22237305 201.43115234 315.82177734 C169.08866949 301.18466613 135.24932834 290.87409624 100.3125 284.75 C99.25021683 284.56186737 99.25021683 284.56186737 98.16647339 284.36993408 C65.24295131 278.6039245 33.88866018 280 0 280 C0 187.6 0 95.2 0 0 Z " fill="#033573" transform="translate(228,294)"/>
<path d="M0 0 C1.21429687 0.38478516 1.21429687 0.38478516 2.453125 0.77734375 C14.86243275 5.21195833 23.33978604 14.13957304 29.17578125 25.78515625 C31.48866936 32.00035796 32.36517526 37.79435441 32.3125 44.375 C32.30686035 45.11886963 32.3012207 45.86273926 32.29541016 46.62915039 C32.01458803 59.39543543 26.565551 69.83659365 17.96875 79.1875 C8.63065877 87.78447288 -4.39700157 92.37296173 -17 92 C-31.74048422 90.26386143 -43.60434891 84.61917706 -53 73 C-61.43109013 60.42333236 -63.05566465 46.18921657 -60.34765625 31.44921875 C-56.81791453 19.76925796 -48.96286874 9.40761608 -38.2265625 3.46484375 C-35.51686509 2.19165716 -32.79848477 1.06179069 -30 0 C-28.3603125 -0.6496875 -28.3603125 -0.6496875 -26.6875 -1.3125 C-17.87184383 -2.95609691 -8.56892523 -2.73642685 0 0 Z " fill="#023271" transform="translate(784,688)"/>
<path d="M0 0 C5.90410675 -0.07481809 11.80793032 -0.12891456 17.71240234 -0.16479492 C19.71603205 -0.17977142 21.71962961 -0.20015981 23.72314453 -0.22631836 C40.33502776 -0.43759169 54.76077592 -0.10153252 67.8125 11.5 C78.73691233 23.98504266 82.25789512 35.49023089 81.20263672 51.95751953 C80.10208686 63.05053177 75.01030063 72.1023925 67.125 79.83984375 C56.86597794 88.23941806 44.96366554 90.17271418 32.12890625 90.09765625 C30.74541237 90.09553383 30.74541237 90.09553383 29.33396912 90.09336853 C26.41011202 90.08780506 23.48633365 90.07525942 20.5625 90.0625 C18.57096465 90.05748028 16.5794281 90.0529182 14.58789062 90.04882812 C9.72523044 90.03784762 4.86262853 90.02060839 0 90 C0.875 85.125 0.875 85.125 2 84 C2.10559849 81.63364435 2.14678441 79.29633115 2.14526367 76.92919922 C2.14862228 76.18927231 2.1519809 75.4493454 2.15544128 74.68699646 C2.16498507 72.22620998 2.16689659 69.76549137 2.16796875 67.3046875 C2.17118071 65.59652681 2.17454473 63.8883664 2.17805481 62.1802063 C2.18405587 58.59050866 2.18589389 55.00083512 2.18530273 51.41113281 C2.18520146 46.82128013 2.19881365 42.23158334 2.21607494 37.6417675 C2.22722433 34.1089101 2.22922098 30.5760899 2.22869301 27.04321671 C2.22987023 25.35201611 2.23427753 23.66081446 2.24202538 21.9696312 C2.25187757 19.5953681 2.24892597 17.22143699 2.24291992 14.84716797 C2.24853943 14.15389908 2.25415894 13.46063019 2.25994873 12.74635315 C2.2303222 8.11241465 1.4264549 4.35917333 0 0 Z " fill="#023472" transform="translate(192,688)"/>
<path d="M0 0 C2.72589764 -0.14574777 5.44395384 -0.25189407 8.171875 -0.3359375 C8.93870605 -0.38097412 9.70553711 -0.42601074 10.49560547 -0.47241211 C16.12496768 -0.60241349 16.12496768 -0.60241349 18.67674637 1.15435123 C20.99097847 3.50029247 22.91976913 6.10516846 24.546875 8.96484375 C27.25249532 13.50159729 30.3684987 17.68850914 33.5 21.9375 C36.93698617 26.70143652 40.34930816 31.48316439 43.75634766 36.26855469 C49.43816762 44.23485952 55.2101464 52.10474509 61 60 C61.33 40.2 61.66 20.4 62 0 C67.28 0 72.56 0 78 0 C78 30.03 78 60.06 78 91 C62 91 62 91 57.9453125 87.5546875 C56.9491893 86.02995492 56.01014276 84.46672647 55.125 82.875 C54.06528163 81.2056165 53.00538411 79.53634671 51.9453125 77.8671875 C51.44676758 77.03670898 50.94822266 76.20623047 50.43457031 75.35058594 C48.45477058 72.10662545 46.24709665 69.06157238 44 66 C43.19776874 64.87733682 42.39701642 63.75361552 41.59765625 62.62890625 C39.67837542 59.94161308 37.74615331 57.26398669 35.80859375 54.58984375 C35.24978516 53.81833984 34.69097656 53.04683594 34.11523438 52.25195312 C33.04613307 50.77711605 31.97593706 49.30307145 30.90429688 47.83007812 C26.1619975 41.28751733 21.60378592 34.649913 17 28 C16.67 48.46 16.34 68.92 16 90 C9.73 90 3.46 90 -3 90 C-2.34 87.36 -1.68 84.72 -1 82 C-0.80564978 79.15594809 -0.68947008 76.40609293 -0.68115234 73.56445312 C-0.67110672 72.76349213 -0.6610611 71.96253113 -0.65071106 71.13729858 C-0.62008978 68.5186223 -0.60290313 65.90004724 -0.5859375 63.28125 C-0.56720887 61.4542149 -0.54763421 59.6271883 -0.5272522 57.8001709 C-0.47610404 53.01303128 -0.43638603 48.22586368 -0.39910889 43.43859863 C-0.35896022 38.54493382 -0.30791762 33.6513837 -0.2578125 28.7578125 C-0.16125845 19.17195577 -0.07678849 9.58603402 0 0 Z " fill="#003170" transform="translate(840,688)"/>
<path d="M0 0 C4.62 0 9.24 0 14 0 C18.98477151 10.41263383 23.55282137 20.95477953 28.02075195 31.59912109 C30.26765459 36.94087244 32.52380306 42.26051081 35 47.5 C41.8770479 62.07613359 47.80969716 77.1231239 54 92 C48.06 92 42.12 92 36 92 C28 76.21621622 28 76.21621622 28 72 C14.47 72.33 0.94 72.66 -13 73 C-15.64 78.94 -18.28 84.88 -21 91 C-22 92 -22 92 -25.81640625 92.09765625 C-27.39846682 92.09098089 -28.98051159 92.07901875 -30.5625 92.0625 C-31.36880859 92.05798828 -32.17511719 92.05347656 -33.00585938 92.04882812 C-35.00393756 92.03700518 -37.00197783 92.01906914 -39 92 C-36.34197546 83.3371682 -32.72118933 75.11460917 -29.125 66.8125 C-28.4547115 65.25801684 -27.78471237 63.70340889 -27.11499023 62.14868164 C-25.40970074 58.19260879 -23.69984733 54.23852705 -21.98858643 50.28503418 C-20.74716169 47.41558556 -19.50845734 44.54496746 -18.26985168 41.67430115 C-12.25975764 27.74736994 -6.20750851 13.84030598 0 0 Z " fill="#013271" transform="translate(532,687)"/>
<path d="M0 0 C1.1325119 0.00444122 2.2650238 0.00888245 3.43185425 0.01345825 C4.71303131 0.01360931 5.99420837 0.01376038 7.31420898 0.01391602 C8.71784621 0.02413008 10.12148186 0.03456209 11.52511597 0.04519653 C12.95715132 0.04892612 14.38918922 0.05177335 15.82122803 0.05377197 C19.59259064 0.06141276 23.3637995 0.08106495 27.13510132 0.10317993 C30.98253296 0.12362884 34.82998941 0.13277164 38.67745972 0.14285278 C46.2283111 0.16431053 53.77903575 0.19845171 61.32980347 0.24050903 C59.11525734 5.77687436 56.18512591 11.00575122 53.32980347 16.24050903 C39.79980347 16.24050903 26.26980347 16.24050903 12.32980347 16.24050903 C12.32980347 23.17050903 12.32980347 30.10050903 12.32980347 37.24050903 C16.53536987 37.22310669 16.53536987 37.22310669 20.82589722 37.20535278 C23.52975349 37.1975627 26.23360852 37.19148566 28.93746948 37.18557739 C30.82224076 37.18053659 32.70700811 37.17370405 34.59176636 37.16506958 C37.29481982 37.15299286 39.99782178 37.14727835 42.70089722 37.14285278 C43.54881332 37.1376915 44.39672943 37.13253021 45.27033997 37.12721252 C47.29051415 37.12701709 49.31058281 37.17844693 51.32980347 37.24050903 C55.10839815 41.01910372 52.32980347 47.89676919 52.32980347 53.24050903 C39.12980347 53.24050903 25.92980347 53.24050903 12.32980347 53.24050903 C12.32980347 60.17050903 12.32980347 67.10050903 12.32980347 74.24050903 C27.83980347 74.24050903 43.34980347 74.24050903 59.32980347 74.24050903 C57.32980347 80.24050903 57.32980347 80.24050903 52.32980347 90.24050903 C33.51980347 90.24050903 14.70980347 90.24050903 -4.67019653 90.24050903 C-4.75041415 68.35892527 -4.75041415 68.35892527 -4.76785278 59.05691528 C-4.77982475 52.70092444 -4.79401226 46.34499102 -4.82107544 39.98904419 C-4.84275005 34.86678309 -4.85475377 29.74458353 -4.85995102 24.62228012 C-4.86365648 22.66458034 -4.87089194 20.70688405 -4.88165665 18.74921036 C-4.89610011 16.01462683 -4.89817749 13.28030013 -4.89724731 10.54568481 C-4.90443787 9.73001038 -4.91162842 8.91433594 -4.91903687 8.07394409 C-4.89079826 0.44052232 -4.89079826 0.44052232 0 0 Z " fill="#033372" transform="translate(108.67019653320313,687.7594909667969)"/>
<path d="M0 0 C5.28 0 10.56 0 16 0 C16.01401855 2.55693604 16.01401855 2.55693604 16.02832031 5.16552734 C16.06401692 10.83345035 16.11792088 16.50101031 16.18390274 22.16866112 C16.22320773 25.60090259 16.25547819 29.03289405 16.27099609 32.46533203 C16.28920838 36.42252691 16.33923374 40.37902937 16.390625 44.3359375 C16.39185364 45.55300385 16.39308228 46.77007019 16.39434814 48.02401733 C16.52531875 55.7316843 17.17994673 63.54552881 22.41143799 69.64584351 C27.74083445 74.3749022 32.585071 75.38922004 39.49609375 75.265625 C43.15136394 74.87785843 45.73369045 73.66648447 49 72 C49.99 71.67 50.98 71.34 52 71 C53.14209817 69.21771064 53.14209817 69.21771064 54 67 C54.3427597 66.25768631 54.68551941 65.51537262 55.03866577 64.75056458 C56.13911441 61.60196658 56.27812371 59.07354308 56.31884766 55.7409668 C56.33871735 54.50005783 56.35858704 53.25914886 56.37905884 51.9806366 C56.39093329 50.63683246 56.40259626 49.29302643 56.4140625 47.94921875 C56.43278498 46.56629799 56.4523592 45.18338853 56.4727478 43.80049133 C56.52396118 40.17233962 56.56364431 36.54415091 56.60089111 32.91583252 C56.64099875 29.20877004 56.69206015 25.50186001 56.7421875 21.79492188 C56.83881893 14.53004483 56.92225099 7.26510816 57 0 C62.61 0 68.22 0 74 0 C74.0681756 7.74614688 74.12304422 15.49212539 74.15543652 23.23849106 C74.17099475 26.83668039 74.19204913 30.43465121 74.22631836 34.03271484 C74.25926816 37.5146215 74.2769267 40.99631996 74.28463173 44.47837067 C74.29275243 46.43232601 74.31611272 48.38619931 74.33988953 50.34002686 C74.34229 63.26821263 72.55241278 73.37813975 63.30078125 82.71484375 C54.71814802 90.6031516 43.90101065 92.41595968 32.5 91.9375 C22.62268734 90.89653771 14.33958125 87.53915313 7.6171875 80.10546875 C0.04749671 70.2502433 -0.28960571 59.66727355 -0.1953125 47.65625 C-0.19157576 46.27763068 -0.18873191 44.89900868 -0.18673706 43.52038574 C-0.17915258 39.91679366 -0.15954962 36.31336645 -0.1373291 32.70983887 C-0.11675802 29.02272775 -0.10771142 25.33558963 -0.09765625 21.6484375 C-0.07629799 14.43220831 -0.04115915 7.21614839 0 0 Z " fill="#033371" transform="translate(299,688)"/>
<path d="M0 0 C1.98489081 1.77821259 3.47691284 3.5933643 4.98828125 5.78125 C3.56110276 7.45676353 2.12119643 9.12144309 0.67578125 10.78125 C-0.52498047 12.1734375 -0.52498047 12.1734375 -1.75 13.59375 C-4.01171875 15.78125 -4.01171875 15.78125 -7.01171875 15.78125 C-8.58604689 14.87757428 -10.12412541 13.90984368 -11.63671875 12.90625 C-19.02718285 8.34503198 -26.73262451 6.55228254 -35.38671875 8.24609375 C-43.48627744 10.33271786 -50.48956756 14.57930551 -55.01171875 21.78125 C-58.89082506 29.60663329 -59.4702393 38.96453115 -57.35546875 47.3984375 C-54.03776583 55.6640939 -48.09144864 62.27207268 -39.94921875 65.93359375 C-30.4162738 68.68445685 -20.64184632 67.53826631 -12.01171875 62.78125 C-9.91346397 61.53158518 -7.98114015 60.23240261 -6.01171875 58.78125 C-2.34505208 62.44791667 1.32161458 66.11458333 4.98828125 69.78125 C-6.49114472 79.62424716 -17.01694253 85.39287416 -32.44921875 84.65625 C-42.26066859 83.65413042 -51.04528967 80.61253255 -59.01171875 74.78125 C-60.04296875 74.03875 -61.07421875 73.29625 -62.13671875 72.53125 C-70.73821165 64.30373505 -76.0293228 53.20416971 -76.3046875 41.33398438 C-76.42692778 25.74834825 -73.07595999 14.68120143 -62.359375 2.9765625 C-45.4033951 -13.02590264 -18.38904813 -13.59862383 0 0 Z " fill="#023271" transform="translate(474.01171875,695.21875)"/>
<path d="M0 0 C6.40008654 4.36537695 11.43724864 10.51090915 13.25390625 18.1640625 C14.90462664 28.01096848 13.98362743 36.81502257 8.125 45.06640625 C2.63938798 51.67632164 -3.44441861 56.98560372 -12.296875 57.84375 C-20.52781388 58.03490568 -26.55315927 56.55897753 -33.296875 51.84375 C-34.369375 51.121875 -35.441875 50.4 -36.546875 49.65625 C-44.16424488 41.86575808 -45.6790145 32.8764621 -45.5703125 22.38671875 C-44.91822603 13.93754126 -40.52719352 7.42913321 -34.296875 1.84375 C-23.2603981 -5.66925708 -11.85341517 -6.57833512 0 0 Z " fill="#FCFDFD" transform="translate(785.296875,706.15625)"/>
<path d="M0 0 C24.09 0 48.18 0 73 0 C73 4.95 73 9.9 73 15 C64.09 15 55.18 15 46 15 C46 39.75 46 64.5 46 90 C40.72 90 35.44 90 30 90 C29.67 65.58 29.34 41.16 29 16 C20.75 15.67 12.5 15.34 4 15 C0 2.25 0 2.25 0 0 Z " fill="#00306F" transform="translate(584,688)"/>
<path d="M0 0 C27.24591884 0 27.24591884 0 37.19140625 9.78125 C42.53458007 16.3361587 44.4119904 24.14562683 44.2734375 32.47265625 C43.33895032 41.10998779 39.50846815 48.31181399 33 54 C24.04065993 60.88389661 10.60684531 60 0 60 C0 40.2 0 20.4 0 0 Z " fill="#FDFDFE" transform="translate(212,703)"/>
<path d="M0 0 C5.42859604 3.30841476 10.91318333 8.11641896 13.125 14.2265625 C14.57036459 21.53081571 15.02065197 30.0880152 11.01171875 36.62890625 C5.47806183 43.53479076 -0.50983536 48.25811573 -9.4375 49.4375 C-17.11703471 49.69387293 -23.60331691 47.84052997 -29.3828125 42.7109375 C-34.8823695 36.93525211 -37.43256777 30.88745416 -37.875 22.9375 C-37.58471539 15.37690539 -33.83236765 8.59780819 -28.4375 3.4375 C-20.28002451 -2.43588235 -9.38424422 -4.19102169 0 0 Z " fill="#FEFEFC" transform="translate(523.4375,313.5625)"/>
<path d="M0 0 C5.61 0 11.22 0 17 0 C17 29.7 17 59.4 17 90 C11.06 90 5.12 90 -1 90 C-0.67 60.3 -0.34 30.6 0 0 Z " fill="#043573" transform="translate(681,688)"/>
<path d="M0 0 C0.66 0 1.32 0 2 0 C3.85366031 4.39561715 5.70501336 8.79219589 7.55419922 13.18969727 C8.18409312 14.68671149 8.81462578 16.18345711 9.44580078 17.67993164 C10.35095092 19.82628844 11.25382772 21.97358888 12.15625 24.12109375 C12.44060913 24.79401962 12.72496826 25.4669455 13.01794434 26.16026306 C15 30.88612829 15 30.88612829 15 32 C5.76 32 -3.48 32 -13 32 C-8.1875 20.5 -8.1875 20.5 -6.68823242 16.92382812 C-4.34791312 11.31879415 -2.08414005 5.70541994 0 0 Z " fill="#FAFBFC" transform="translate(538,712)"/>
<path d="M0 0 C6.05060637 -0.04944549 12.10109505 -0.08574129 18.15185547 -0.10986328 C20.21014454 -0.11991954 22.26841933 -0.13356629 24.32666016 -0.15087891 C27.28551763 -0.17514354 30.24418617 -0.18648688 33.203125 -0.1953125 C34.12305237 -0.20563507 35.04297974 -0.21595764 35.99078369 -0.22659302 C36.8513739 -0.22674408 37.71196411 -0.22689514 38.59863281 -0.22705078 C39.73114471 -0.23371262 39.73114471 -0.23371262 40.88653564 -0.24050903 C43.28848957 0.03282967 44.91393523 0.807789 47 2 C45.06181396 1.97643433 45.06181396 1.97643433 43.08447266 1.95239258 C38.30247197 1.89819961 33.52049855 1.86368874 28.73828125 1.83520508 C26.66629476 1.82009414 24.59434037 1.79960459 22.52246094 1.77368164 C19.54874767 1.73739949 16.57545627 1.72029702 13.6015625 1.70703125 C12.67131256 1.69154739 11.74106262 1.67606354 10.78262329 1.66011047 C9.92188202 1.65988388 9.06114075 1.65965729 8.17431641 1.65942383 C7.41486725 1.65276199 6.65541809 1.64610016 5.87295532 1.63923645 C5.25488007 1.75828842 4.63680481 1.87734039 4 2 C3.01 3.485 3.01 3.485 2 5 C1.34 3.35 0.68 1.7 0 0 Z " fill="#031761" transform="translate(192,688)"/>
<path d="M0 0 C0.33 0.66 0.66 1.32 1 2 C0.34 3.65 -0.32 5.3 -1 7 C5.93 7.495 5.93 7.495 13 8 C13.66 6.68 14.32 5.36 15 4 C14.125 8.875 14.125 8.875 13 10 C10.13732433 10.07325168 7.299281 10.09238205 4.4375 10.0625 C3.63119141 10.05798828 2.82488281 10.05347656 1.99414062 10.04882812 C-0.00393756 10.03700518 -2.00197783 10.01906914 -4 10 C-3.52449439 8.51965236 -3.04448784 7.04074979 -2.5625 5.5625 C-2.29566406 4.73878906 -2.02882813 3.91507813 -1.75390625 3.06640625 C-1 1 -1 1 0 0 Z " fill="#02195F" transform="translate(497,769)"/>
<path d="M0 0 C0.99 0.33 1.98 0.66 3 1 C2.5875 1.41507812 2.175 1.83015625 1.75 2.2578125 C-4.08884218 8.48764857 -7.96736133 15.54223706 -12 23 C-12.66 22.67 -13.32 22.34 -14 22 C-9.75283156 14.32491389 -5.58274385 6.80925576 0 0 Z " fill="#FDA60D" transform="translate(420,294)"/>
<path d="M0 0 C0.66 0.66 1.32 1.32 2 2 C1.01 2.66 0.02 3.32 -1 4 C-1 1 -1 1 0 0 Z M-2 3 C-3.31825763 6.55929561 -5.46932524 8.3826164 -8.4140625 10.6953125 C-10.26423206 12.16444094 -10.26423206 12.16444094 -12.6875 14.8125 C-15 17 -15 17 -18 17 C-15.71643754 14.65861457 -13.42186626 12.32833018 -11.125 10 C-10.47402344 9.33226562 -9.82304687 8.66453125 -9.15234375 7.9765625 C-8.52714844 7.34492188 -7.90195312 6.71328125 -7.2578125 6.0625 C-6.6817627 5.47597656 -6.10571289 4.88945312 -5.51220703 4.28515625 C-4 3 -4 3 -2 3 Z " fill="#FEA408" transform="translate(441,273)"/>
<path d="M0 0 C1.65 0.33 3.3 0.66 5 1 C2.47043472 4.0916909 -0.22454612 4.90931332 -4 6 C-3.525625 5.38125 -3.05125 4.7625 -2.5625 4.125 C-0.97582559 2.09294454 -0.97582559 2.09294454 0 0 Z " fill="#051F63" transform="translate(595,561)"/>
<path d="M0 0 C0.66 0.66 1.32 1.32 2 2 C1.01 2.66 0.02 3.32 -1 4 C-1 1 -1 1 0 0 Z M-2 3 C-2.66 4.32 -3.32 5.64 -4 7 C-4.99 6.67 -5.98 6.34 -7 6 C-4.25 3 -4.25 3 -2 3 Z " fill="#FEAD15" transform="translate(441,273)"/>
<path d="M0 0 C-1.39195915 2.7839183 -3.15575779 2.97898997 -6 4 C-6.33 3.01 -6.66 2.02 -7 1 C-3.375 -1.125 -3.375 -1.125 0 0 Z " fill="#072567" transform="translate(427,691)"/>
</svg>
